<svg t="1634718826730" class="icon" viewBox="0 0 1024 1024" version="1.1" xmlns="http://www.w3.org/2000/svg" p-id="2903" width="146px" height="38px"><path d="M1021.866667 768s2.133333-14.933333 2.133333-21.333333c0-251.733333-181.333333-458.666667-418.133333-503.466667 8.533333-14.933333 12.8-32 12.8-51.2 0-59.733333-46.933333-106.666667-106.666667-106.666667s-106.666667 46.933333-106.666667 106.666667c0 19.2 4.266667 36.266667 12.8 51.2C181.333333 288 0 494.933333 0 746.666667c0 6.4 0 21.333333 2.133333 21.333333-2.133333 0-2.133333 6.4-2.133333 10.666667 0 17.066667 14.933333 32 32 32h960c17.066667 0 32-14.933333 32-32 0-4.266667 0-10.666667-2.133333-10.666667zM512 149.333333c23.466667 0 42.666667 19.2 42.666667 42.666667s-19.2 42.666667-42.666667 42.666667-42.666667-19.2-42.666667-42.666667 19.2-42.666667 42.666667-42.666667zM64 746.666667c0-256 200.533333-448 448-448s448 192 448 448H64zM992 938.666667h-960C14.933333 938.666667 0 923.733333 0 906.666667S14.933333 874.666667 32 874.666667h960c17.066667 0 32 14.933333 32 32s-14.933333 32-32 32z" fill="#F8B535" p-id="2904"></path></svg>