<svg t="1634718541422" class="icon" viewBox="0 0 1866 1024" version="1.1" xmlns="http://www.w3.org/2000/svg" p-id="2744" width="146px" height="38px"><path d="M602.069577 524.554897h671.106391v479.811671H602.069577z" fill="#92CAEE" p-id="2745"></path><path d="M597.554938 514.475702h110.031211v479.811672H597.554938z" fill="#5DA1D3" p-id="2746"></path><path d="M1268.661328 443.186397H597.554938l335.553195-422.066284 335.553195 422.066284z" fill="#92CAEE" p-id="2747"></path><path d="M1068.442322 360.138031H797.773944l135.334189-170.191404 135.334189 170.191404z" fill="#ECEBEB" p-id="2748"></path><path d="M1011.01191 337.774818H798.088919l15.013801 36.117114L948.121934 203.700528h-29.92261c32.127434 40.421771 64.254867 80.843542 95.857343 121.580288 16.693666 20.998323 46.406293-8.609312 29.92261-29.92261q-47.561201-61.105119-95.857343-121.475296a20.998323 20.998323 0 0 0-29.92261 0l-135.334189 170.086413A20.998323 20.998323 0 0 0 798.088919 380.086438h212.922991c27.192828 0 27.297819-41.996645 0-41.996646zM1068.442322 380.086438c27.192828 0 27.192828-41.996645 0-41.996646s-27.297819 41.996645 0 41.996646z" fill="#49494A" p-id="2749"></path><path d="M972.899955 71.306104l-39.791822-50.185991-335.553195 422.066284h79.688634L972.899955 71.306104z" fill="#5DA1D3" p-id="2750"></path><path d="M1268.661328 981.68838H597.554938l20.998323 20.998323V522.980023l-20.998323 20.998322h671.10639l-20.998322-20.998322v479.811671c0 27.192828 41.996645 27.297819 41.996645 0v-479.811671a20.998323 20.998323 0 0 0-20.998323-20.998323H597.554938a20.998323 20.998323 0 0 0-20.998322 20.998323v479.811671a20.998323 20.998323 0 0 0 20.998322 20.998323h671.10639c27.192828 0.209983 27.297819-42.101637 0-42.101637zM1268.661328 421.978091H597.554938l15.013801 36.117115 335.973161-421.961292h-30.342576l335.973162 421.961292c16.90365 20.998323 46.616276-8.819295 29.922609-29.92261L948.016942 6.211304a20.998323 20.998323 0 0 0-29.817618 0l-335.973161 421.961292a20.998323 20.998323 0 0 0 14.908809 36.117115h671.10639c27.612794 0 27.717786-42.31162 0.419966-42.31162z" fill="#49494A" p-id="2751"></path><path d="M1345.830164 443.186397v559.185331l454.928659-81.893458V443.186397z m79.688634 197.804199h305.315611v122.840187l-305.315611 52.495807z" fill="#92CAEE" p-id="2752"></path><path d="M1484.734068 806.56237l-59.21527 10.184186V640.990596h59.21527V443.186397h-138.903904v559.185331l138.903904-24.988004V806.56237z" fill="#5DA1D3" p-id="2753"></path><path d="M65.562435 443.186397v477.291873l454.928659 81.893458V443.186397zM441.117435 816.746556l-305.315611-52.495806V640.990596H441.117435z" fill="#92CAEE" p-id="2754"></path><path d="M170.869023 766.350582l-35.487165-6.089514v-122.840187h35.487165V439.511691H65.562435v477.291872l105.306588 19.003482V766.350582z" fill="#5DA1D3" p-id="2755"></path><path d="M135.381858 640.990596h305.31561v76.748869H135.381858zM1420.584192 640.990596h305.315611v76.748869h-305.315611z" fill="#F3D24F" p-id="2756"></path><path d="M541.594408 573.690972V443.186397a20.998323 20.998323 0 0 0-20.998322-20.998323H483.11408c-27.297819 0-27.297819 41.996645 0 41.996646h37.062039l-20.998322-20.998323v130.504575c0 27.192828 41.996645 27.192828 41.996645 0z" fill="#49494A" p-id="2757"></path><path d="M414.659548 421.978091H65.562435a20.998323 20.998323 0 0 0-20.998322 20.998323v477.501856a20.998323 20.998323 0 0 0 15.538758 20.368373L514.611564 1022.740101a20.998323 20.998323 0 0 0 26.772861-20.368373V651.909724c0-27.192828-41.996645-27.297819-41.996645 0v350.462004l26.772861-20.368373-455.03365-81.893458 15.538758 20.368373V443.186397l-20.998322 20.998323h348.992121c27.192828 0 27.297819-41.996645 0-41.996646z" fill="#49494A" p-id="2758"></path><path d="M420.119112 699.155949v117.590607l26.772862-20.368373-305.315611-52.495806 15.433767 20.368373V640.990596l-20.998323 20.998322h100.266991c27.297819 0 27.297819-41.996645 0-41.996645h-100.89694a20.998323 20.998323 0 0 0-20.998323 20.998323v122.840187a20.998323 20.998323 0 0 0 15.433767 20.998323l305.420602 52.495806A20.998323 20.998323 0 0 0 462.115757 816.746556v-117.590607c0-27.192828-41.996645-27.297819-41.996645 0z" fill="#49494A" p-id="2759"></path><path d="M293.499227 662.198902h90.187796c27.192828 0 27.297819-41.996645 0-41.996646h-90.187796c-27.192828 0-27.192828 41.996645 0 41.996646zM1324.621858 537.678849v464.692879a20.998323 20.998323 0 0 0 26.772861 20.368373l454.613684-81.893458a20.998323 20.998323 0 0 0 15.538759-20.368373V443.186397a20.998323 20.998323 0 0 0-20.998322-20.998323h-376.079958c-27.192828 0-27.297819 41.996645 0 41.996646h376.289941l-20.998323-20.998323v477.291873l15.748742-20.368373-454.928659 81.893458 26.772861 20.368373V537.678849c0-27.192828-41.996645-27.192828-41.996645 0z" fill="#49494A" p-id="2760"></path><path d="M1530.825386 776.954735l-110.976135 19.213465 26.772861 20.368373V640.990596l-20.998322 20.998322h305.31561l-20.998322-20.998322v122.840187l15.538758-20.368373-89.87282 15.64375c-26.772861 4.619631-15.433767 45.356377 11.234102 40.736746l89.872821-15.538758a20.998323 20.998323 0 0 0 15.538759-20.998323V640.990596a21.523281 21.523281 0 0 0-20.998323-20.998323h-305.735577a20.998323 20.998323 0 0 0-20.998323 20.998323v175.75596a21.523281 21.523281 0 0 0 26.772862 20.473365l110.976135-19.213466c26.772861-4.724623 15.433767-45.461368-11.234103-40.841737zM359.538952 369.062318c27.192828 0 27.297819-41.996645 0-41.996645s-27.297819 41.996645 0 41.996645z" fill="#49494A" p-id="2761"></path><path d="M1287.244844 347.959004h557.085498L1656.290363 103.853504h-557.085498l188.039979 244.1055z" fill="#F3D24F" p-id="2762"></path><path d="M1223.514935 172.62301l485.58621-0.209983-52.810782-68.559523h-557.085498l188.039979 244.1055h73.809104l-137.539013-175.335994z" fill="#BFAD65" p-id="2763"></path><path d="M578.971423 347.959004H21.885924L209.925903 103.853504h557.19049L578.971423 347.959004z" fill="#F3D24F" p-id="2764"></path><path d="M257.382112 172.62301h459.653282l50.080999-68.769506H209.925903L21.885924 347.959004h97.432217l138.063971-175.335994z" fill="#BFAD65" p-id="2765"></path><path d="M266.411391 326.750698H21.885924l18.268541 31.497484L184.937899 170.733161A418.076603 418.076603 0 0 0 219.060173 126.006734c14.593834-25.40797 0 7.244421-6.824454-1.469882 4.724623 6.404488 61.945052 0 69.609439 0h485.271235l-18.268541-31.497484-157.487419 204.41867c-5.87953 7.664388-26.03792 25.617954-27.297819 35.382174-1.784857 13.543918 10.499161-11.759061 12.808976-6.194505a184.995222 184.995222 0 0 0-24.148071 0H422.953886c-27.192828 0-27.297819 41.996645 0 41.996645h137.119046c31.497484 0 38.531922-12.179027 56.800463-35.80214l168.511539-218.277564c10.499161-13.228943-3.779698-31.497484-18.268541-31.497483H386.206821c-55.015605 0-116.54069-7.979363-171.136329 0-34.752224 5.039597-60.685152 58.900295-80.73855 84.833223L3.617384 337.24986c-10.499161 13.228943 3.779698 31.497484 18.26854 31.497483h244.525467c27.297819 0 27.297819-41.996645 0-41.996645zM1287.139852 82.75019h-187.934987c-14.488843 0-28.452727 18.583515-18.268541 31.497484l109.611244 142.263635 64.464851 83.993291c10.499161 12.913968 16.168708 24.463046 32.442408 28.557718 41.996645 10.499161 99.742032 0 142.683602 0h414.191913c14.488843 0 28.452727-18.583515 18.268541-31.497484l-136.489097-177.120851c-15.958725-20.998323-31.497484-49.346058-51.235907-66.564682-22.258222-19.213465-57.640396-10.499161-86.093123-10.499162s-27.192828 41.996645 0 41.996646a278.437758 278.437758 0 0 0 52.495807 0c22.993163-4.724623 2.099832 3.464723-3.359732-10.499162 1.154908 2.939765 4.724623 5.144589 6.089514 7.979363 14.068876 27.507803 40.946729 53.125756 59.845219 77.588802l121.790271 158.117369 18.268541-31.497484h-484.746277c-7.664388 0-64.989808-6.404488-69.60944 0 6.299497-8.714304 20.998323 23.938088 6.824455-1.364891a433.405378 433.405378 0 0 0-34.227266-44.306461L1117.368414 93.144359l-18.163549 31.497484h187.934987c27.192828 0 27.297819-41.996645 0-41.996645z" fill="#49494A" p-id="2766"></path><path d="M1492.923414 82.75019h-101.421899c-27.297819 0-27.297819 41.996645 0 41.996645h101.421899c27.297819 0 27.297819-41.996645 0-41.996645z" fill="#49494A" p-id="2767"></path><path d="M1134.06208 766.455573a193.499543 193.499543 0 1 1-193.499542-193.604534A193.499543 193.499543 0 0 1 1134.06208 766.455573z" fill="#F3D24F" p-id="2768"></path><path d="M1100.674748 705.03548c25.932928 80.948534-0.839933 169.24648-77.588802 211.453108a173.026178 173.026178 0 0 1-212.818-38.846896c-128.929701-150.977939 62.994968-353.611752 227.20185-252.609821 23.203146 14.278859 44.516444-22.258222 20.998323-36.537082C966.0755 531.589335 846.595044 545.343236 776.145672 629.966477a213.447949 213.447949 0 0 0 256.179535 328.72874c100.371982-47.666192 142.368627-161.897067 109.086286-265.313806-8.294337-25.722945-49.136075-14.698826-40.736745 11.234102z" fill="#49494A" p-id="2769"></path><path d="M1095.0052 672.48808c27.297819 0 27.297819-41.996645 0-41.996645s-27.192828 41.996645 0 41.996645zM904.025456 680.782417v57.850379l10.499162-18.268541-48.296142 22.78318h20.998322l-48.401133-22.78318 10.499161 18.268541v-57.850379c0-27.192828-41.996645-27.297819-41.996645 0v57.850379a20.998323 20.998323 0 0 0 10.499161 18.268541l27.612794 13.01896a92.182636 92.182636 0 0 0 31.497484 12.598993 83.363341 83.363341 0 0 0 29.712627-11.864052l29.29266-13.753901a20.998323 20.998323 0 0 0 10.499161-18.268541v-57.850379c0-27.192828-41.996645-27.297819-41.996645 0z" fill="#49494A" p-id="2770"></path><path d="M855.624323 673.013038v199.484064c0 27.192828 41.996645 27.192828 41.996645 0v-199.484064c0-27.192828-41.996645-27.297819-41.996645 0zM1046.919042 718.264423l-17.323616 6.929446-12.808977 5.14459c-3.674706 1.469883-12.38901 3.044757-2.309816 3.044756s2.414807-0.839933-1.049916-2.519798-8.294337-3.359732-12.38901-5.039598l-19.003482-7.559396L997.572984 738.632796V673.013038L982.034225 692.961444l18.793499-6.194505c4.199665-1.364891 8.924287-2.414807 13.01896-4.199664 11.339094-5.354572-2.099832 4.724623-5.039598-1.889849 1.154908 2.62479 17.743583 5.774539 20.998323 6.614471l17.113633 5.669547-15.538759-19.948406v65.619758c0 27.192828 41.996645 27.297819 41.996645 0V673.013038a21.628272 21.628272 0 0 0-15.538759-20.368373 215.547781 215.547781 0 0 0-41.261703-12.808977c-14.698826-1.574874-32.442408 8.294337-46.091319 12.808977A21.628272 21.628272 0 0 0 955.576338 673.013038v65.619758a21.838255 21.838255 0 0 0 15.538759 20.368373c12.913968 5.144589 29.502643 16.063717 43.676511 16.063717s30.762543-10.499161 43.676511-16.063717c24.988004-10.499161 14.068876-50.920932-11.234102-40.736746z" fill="#49494A" p-id="2771"></path><path d="M993.373319 753.85658v118.220556c0 27.192828 41.996645 27.192828 41.996645 0V753.85658c0-27.192828-41.996645-27.192828-41.996645 0z" fill="#49494A" p-id="2772"></path></svg>